<?xml version="1.0" standalone="no"?><!DOCTYPE svg PUBLIC "-//W3C//DTD SVG 1.1//EN" "http://www.w3.org/Graphics/SVG/1.1/DTD/svg11.dtd"><svg t="1755160716110" class="icon" viewBox="0 0 1044 1024" version="1.1" xmlns="http://www.w3.org/2000/svg" p-id="10305" xmlns:xlink="http://www.w3.org/1999/xlink" width="203.90625" height="200"><path d="M521.928895 0L266.094376 255.834518H85.388494A85.388494 85.388494 0 0 0 0 341.223012v341.553976a85.388494 85.388494 0 0 0 85.388494 85.388494h181.367809l255.172592 255.834518a85.388494 85.388494 0 0 0 85.388493-85.388494V85.388494A85.388494 85.388494 0 0 0 521.928895 0z m0 935.632838l-223.731093-246.898514H85.388494V346.518423h213.140271l223.40013-246.236587v835.351002zM1028.302521 549.398836c8.274079 0 15.224305-16.879121 15.224305-37.398836s-6.950226-37.398836-15.224305-37.398836h-106.901099c-8.274079 0-15.224305 16.879121-15.224305 37.398836s6.950226 37.398836 15.224305 37.398836zM1039.886231 65.861668c7.281189-4.302521 4.964447-22.174531-5.626373-40.046542s-24.491273-29.124758-33.096316-24.822237l-91.34583 53.285068c-7.281189 4.302521-4.964447 22.174531 5.626373 40.046542s24.491273 29.124758 33.096316 24.822237l92.33872-53.285068zM1039.886231 958.138332c7.281189 4.302521 4.964447 22.174531-5.626373 40.046542s-24.491273 29.124758-33.096316 24.822237l-92.33872-53.285068c-7.281189-4.302521-4.964447-22.174531 5.626374-40.046542s24.491273-29.124758 33.096315-24.822237l92.33872 53.285068zM667.883646 703.627666c-7.612153-20.519716-5.626374-40.046542 14.893342-47.658694a147.94053 147.94053 0 0 0 82.740788-128.744667 150.257272 150.257272 0 0 0-81.416936-156.214609 37.762896 37.762896 0 0 1 36.405947-66.192631 231.674208 231.674208 0 0 1 122.456367 229.357466 225.385908 225.385908 0 0 1-127.751777 182.691662 33.096315 33.096315 0 0 1-47.658694-14.893342z" fill="#FF7007" p-id="10306"></path></svg>